<?xml version="1.0" standalone="no"?>
<!DOCTYPE svg PUBLIC "-//W3C//DTD SVG 20010904//EN"
 "http://www.w3.org/TR/2001/REC-SVG-20010904/DTD/svg10.dtd">
<svg version="1.0" xmlns="http://www.w3.org/2000/svg"
 width="16.000000pt" height="16.000000pt" viewBox="0 0 16.000000 16.000000"
 preserveAspectRatio="xMidYMid meet">
<metadata>
Created by potrace 1.11, written by Peter Selinger 2001-2013
</metadata>
<g transform="translate(0.000000,16.000000) scale(0.002685,-0.002685)"
fill="#000000" stroke="none">
<path d="M220 3894 c-10 -12 -13 -87 -13 -332 l1 -317 -39 -120 c-130 -407
-196 -823 -151 -956 14 -40 46 -60 78 -49 20 8 66 56 95 100 15 23 16 21 16
-57 0 -53 4 -87 13 -97 11 -14 279 -16 2698 -16 l2686 0 177 178 177 177 0
575 1 575 -178 178 -177 177 -2686 0 c-2419 0 -2687 -2 -2698 -16z m5518 -206
l162 -161 0 -546 0 -546 -162 -163 -162 -162 -2652 0 c-2517 0 -2652 1 -2656
18 -2 9 -3 262 -3 562 l2 545 40 92 c22 51 54 114 72 141 l31 49 54 -5 c50 -4
56 -2 92 31 36 33 39 40 38 87 -1 67 -39 110 -105 117 -95 9 -155 -70 -125
-164 5 -16 0 -32 -17 -55 -14 -18 -37 -57 -51 -85 -15 -29 -27 -53 -29 -53 -2
0 -1 438 2 453 0 4 1195 7 2654 7 l2653 0 162 -162z m-5191 -3 c32 -36 29 -78
-6 -117 l-29 -32 -27 33 c-25 28 -32 32 -61 26 -29 -5 -34 -3 -40 19 -7 28 9
63 40 89 30 26 94 16 123 -18z m-340 -972 l1 -328 -39 -75 c-45 -87 -84 -138
-95 -127 -24 24 -1 321 39 502 2 11 8 38 12 60 5 22 9 45 11 52 4 21 67 243
69 243 1 0 2 -147 2 -327z"/>
<path d="M1900 3634 c-13 -4 -15 -72 -13 -547 1 -298 2 -545 2 -549 1 -5 15
-8 31 -8 26 0 31 5 36 30 l6 30 35 -30 c18 -17 41 -31 51 -31 9 -1 27 -3 39
-4 33 -3 97 29 120 61 35 49 39 90 38 364 0 247 -2 268 -21 304 -25 48 -58 75
-108 86 -41 9 -89 -2 -118 -28 -17 -14 -18 -6 -18 156 l0 172 -32 -1 c-18 -1
-40 -3 -48 -5z m217 -396 c12 -6 25 -18 29 -27 4 -9 9 -131 10 -271 2 -284 -1
-300 -59 -319 -41 -14 -78 -3 -101 31 -14 19 -16 60 -16 281 0 157 4 266 10
277 23 44 73 54 127 28z"/>
<path d="M4355 3631 c-3 -2 -5 -78 -5 -168 0 -92 -4 -163 -9 -163 -5 0 -11 5
-13 10 -2 6 -22 17 -44 25 -86 29 -185 -34 -199 -129 -4 -22 -5 -161 -3 -307
l3 -266 28 -37 c41 -53 70 -69 127 -69 38 0 58 6 84 27 42 32 44 32 48 4 2
-18 11 -24 35 -26 l32 -3 -1 556 0 556 -39 -3 c-22 -1 -42 -4 -44 -7z m-60
-386 c18 -9 37 -27 44 -41 18 -39 15 -507 -3 -543 -24 -46 -74 -59 -125 -31
-40 21 -43 43 -42 306 1 275 3 286 56 310 38 17 31 17 70 -1z"/>
<path d="M5049 3606 c0 -17 -1 -247 -1 -511 -1 -490 0 -504 36 -540 15 -15 73
-35 80 -28 14 14 6 82 -11 92 -16 8 -17 48 -17 515 l0 506 -43 -2 c-41 -1 -43
-3 -44 -32z"/>
<path d="M1064 3340 c-54 -12 -101 -48 -123 -94 -20 -40 -21 -60 -21 -311 0
-248 2 -272 20 -310 65 -134 260 -131 322 5 6 14 12 58 14 98 l2 72 -44 0 -44
0 0 -60 c0 -72 -18 -104 -65 -120 -39 -13 -86 5 -105 39 -6 12 -10 120 -10
279 0 243 1 261 20 284 37 48 118 41 145 -13 9 -16 15 -55 15 -90 0 -59 1 -61
23 -55 12 3 32 6 45 6 21 0 23 4 22 48 -2 75 -19 136 -46 165 -45 48 -111 71
-170 57z"/>
<path d="M2505 3340 c-93 -21 -135 -85 -135 -207 l0 -65 38 6 c20 3 40 5 45 6
4 0 7 28 7 63 0 55 3 67 25 87 35 33 81 31 112 -4 19 -22 23 -38 23 -89 0 -95
-27 -128 -154 -192 -53 -27 -102 -79 -110 -117 -3 -17 -6 -60 -6 -96 0 -107
46 -176 131 -199 51 -15 128 -3 149 22 10 12 15 12 33 0 12 -8 34 -16 50 -19
26 -5 27 -3 27 39 0 28 -5 47 -14 52 -12 7 -15 59 -18 309 l-3 301 -28 36
c-43 57 -108 82 -172 67z m100 -684 c-24 -37 -68 -51 -106 -36 -49 21 -60 48
-57 131 l3 74 85 51 85 50 3 -123 c2 -98 -1 -128 -13 -147z"/>
<path d="M2998 3335 c-15 -6 -38 -21 -51 -33 l-24 -23 -6 29 c-5 24 -11 28
-36 28 -24 0 -31 -4 -32 -20 -1 -24 -1 -767 0 -779 1 -5 20 -7 43 -5 l43 3 0
327 c1 314 1 328 21 355 40 54 120 48 147 -10 12 -26 15 -90 15 -337 0 -168 1
-313 1 -323 1 -15 8 -18 44 -15 l42 3 0 325 c1 373 2 381 83 393 27 4 40 0 65
-23 l32 -28 2 -319 c1 -175 2 -326 2 -336 1 -15 8 -18 44 -15 l42 3 0 336 c0
362 0 362 -54 422 -51 56 -164 65 -229 18 -25 -18 -26 -18 -60 5 -19 13 -42
24 -51 25 -9 0 -25 2 -36 3 -11 1 -32 -3 -47 -9z"/>
<path d="M3734 3336 c-51 -14 -91 -45 -114 -91 -16 -31 -18 -65 -18 -299 0
-146 4 -281 9 -301 18 -64 93 -119 164 -119 75 0 151 50 174 116 7 18 10 135
8 307 -2 277 -2 278 -27 314 -44 64 -122 94 -196 73z m77 -86 c6 0 21 -12 34
-26 l25 -27 0 -259 c0 -288 -2 -297 -65 -318 -39 -13 -68 -2 -97 34 -16 19
-18 49 -18 273 0 143 4 263 10 278 10 27 65 58 88 50 8 -3 18 -5 23 -5z"/>
<path d="M4705 3340 c-68 -15 -117 -66 -132 -135 -14 -62 -9 -523 5 -566 33
-95 158 -142 251 -94 65 33 95 97 94 193 -2 75 -1 73 -30 68 -16 -2 -35 -5
-43 -5 -12 -1 -16 -15 -16 -67 -1 -57 -5 -69 -27 -92 -36 -36 -88 -36 -124 0
-25 25 -26 31 -27 143 -1 63 1 119 4 124 3 4 61 8 128 7 70 -1 127 3 130 9 3
5 5 70 5 145 -1 99 -5 145 -17 172 -31 71 -122 116 -201 98z m104 -115 c22
-22 24 -32 25 -119 l1 -96 -91 0 -90 0 1 95 c2 78 5 99 21 116 39 44 90 45
133 4z"/>
<path d="M5397 3336 c-79 -23 -122 -91 -120 -193 2 -79 0 -75 41 -69 20 3 40
5 43 6 3 0 4 24 4 53 -2 64 10 94 47 113 24 12 32 12 62 0 46 -19 57 -61 47
-177 -2 -25 -59 -76 -129 -115 -80 -44 -99 -60 -119 -98 -19 -36 -21 -166 -4
-217 32 -97 163 -144 255 -91 30 17 33 17 66 0 19 -10 40 -18 46 -18 15 0 7
75 -10 103 -11 18 -14 79 -15 304 0 242 -2 286 -16 314 -21 40 -62 76 -95 84
-54 12 -66 12 -103 1z m127 -545 c0 -118 -1 -123 -27 -148 -36 -37 -88 -37
-124 0 -24 24 -27 33 -26 97 0 51 5 76 16 87 23 23 140 92 152 89 6 -2 10 -51
9 -125z"/>
<path d="M1395 3330 c-9 -15 -4 -648 6 -682 29 -108 152 -156 235 -93 40 31
40 31 48 0 5 -20 13 -25 36 -25 l30 0 0 404 0 403 -42 -1 -43 -2 -2 -329 c-2
-302 -4 -332 -21 -354 -37 -50 -116 -48 -145 3 -8 15 -13 119 -17 351 l-5 330
-38 0 c-21 0 -40 -2 -42 -5z"/>
<path d="M577 3150 c-3 -8 -15 -45 -27 -81 l-21 -67 -77 0 c-42 0 -81 0 -86
-1 -5 -1 23 -25 62 -55 39 -29 69 -56 66 -59 -3 -3 -16 -40 -29 -82 l-24 -77
35 26 c18 14 49 37 67 51 19 14 37 25 41 25 4 0 34 -21 67 -46 33 -25 62 -44
65 -41 3 2 -6 38 -19 80 l-24 76 70 50 c38 28 64 51 56 52 -8 0 -47 2 -88 2
l-74 2 -22 65 c-32 99 -32 98 -38 80z"/>
</g>
</svg>
